<svg width="20" height="16" viewBox="0 0 20 16" fill="none" xmlns="http://www.w3.org/2000/svg">
<path d="M1 6H0C0 6.26522 0.105357 6.51957 0.292893 6.70711C0.48043 6.89464 0.734784 7 1 7V6ZM1 10V9C0.734784 9 0.48043 9.10536 0.292893 9.29289C0.105357 9.48043 0 9.73478 0 10H1ZM19 6V7C19.2652 7 19.5196 6.89464 19.7071 6.70711C19.8946 6.51957 20 6.26522 20 6H19ZM19 10H20C20 9.73478 19.8946 9.48043 19.7071 9.29289C19.5196 9.10536 19.2652 9 19 9V10ZM3 2H8V0H3V2ZM8 2H17V0H8V2ZM17 14H8V16H17V14ZM8 14H3V16H8V14ZM7 1V15H9V1H7ZM1.707 7.293C1.89447 7.48053 1.99979 7.73484 1.99979 8C1.99979 8.26516 1.89447 8.51947 1.707 8.707L3.121 10.121C3.68341 9.55842 3.99936 8.79549 3.99936 8C3.99936 7.20451 3.68341 6.44158 3.121 5.879L1.707 7.293ZM18.293 8.707C18.1055 8.51947 18.0002 8.26516 18.0002 8C18.0002 7.73484 18.1055 7.48053 18.293 7.293L16.879 5.879C16.3166 6.44158 16.0006 7.20451 16.0006 8C16.0006 8.79549 16.3166 9.55842 16.879 10.121L18.293 8.707ZM1 7C1.257 7 1.512 7.097 1.707 7.293L3.121 5.879C2.55852 5.31635 1.79558 5.00017 1 5V7ZM2 6V3H0V6H2ZM2 13V10H0V13H2ZM1.707 8.707C1.51951 8.89455 1.26519 8.99994 1 9V11C1.766 11 2.536 10.707 3.121 10.121L1.707 8.707ZM18.293 7.293C18.4805 7.10545 18.7348 7.00006 19 7V5C18.234 5 17.464 5.293 16.879 5.879L18.293 7.293ZM18 3V6H20V3H18ZM18 10V13H20V10H18ZM19 9C18.7348 8.99994 18.4805 8.89455 18.293 8.707L16.879 10.121C17.4415 10.6836 18.2044 10.9998 19 11V9ZM3 14C2.73478 14 2.48043 13.8946 2.29289 13.7071C2.10536 13.5196 2 13.2652 2 13H0C0 13.7956 0.316071 14.5587 0.87868 15.1213C1.44129 15.6839 2.20435 16 3 16V14ZM17 16C17.7956 16 18.5587 15.6839 19.1213 15.1213C19.6839 14.5587 20 13.7956 20 13H18C18 13.2652 17.8946 13.5196 17.7071 13.7071C17.5196 13.8946 17.2652 14 17 14V16ZM17 2C17.2652 2 17.5196 2.10536 17.7071 2.29289C17.8946 2.48043 18 2.73478 18 3H20C20 2.20435 19.6839 1.44129 19.1213 0.87868C18.5587 0.316071 17.7956 0 17 0V2ZM3 0C2.20435 0 1.44129 0.316071 0.87868 0.87868C0.316071 1.44129 0 2.20435 0 3H2C2 2.73478 2.10536 2.48043 2.29289 2.29289C2.48043 2.10536 2.73478 2 3 2V0Z" fill="black"/>
</svg>
